<svg width="45" height="46" viewBox="0 0 45 46" fill="none" xmlns="http://www.w3.org/2000/svg">
<path d="M25.1436 22.674L33.2061 14.6302C33.5592 14.2772 33.7576 13.7983 33.7576 13.299C33.7576 12.7997 33.5592 12.3208 33.2061 11.9677C32.8531 11.6147 32.3742 11.4163 31.8749 11.4163C31.3756 11.4163 30.8967 11.6147 30.5436 11.9677L22.4999 20.0302L14.4561 11.9677C14.1031 11.6147 13.6242 11.4163 13.1249 11.4163C12.6256 11.4163 12.1467 11.6147 11.7936 11.9677C11.4406 12.3208 11.2422 12.7997 11.2422 13.299C11.2422 13.7983 11.4406 14.2772 11.7936 14.6302L19.8561 22.674L11.7936 30.7177C11.6179 30.892 11.4784 31.0994 11.3832 31.3279C11.288 31.5564 11.239 31.8015 11.239 32.049C11.239 32.2965 11.288 32.5416 11.3832 32.7701C11.4784 32.9986 11.6179 33.2059 11.7936 33.3802C11.9679 33.556 12.1753 33.6955 12.4038 33.7907C12.6323 33.8859 12.8774 33.9349 13.1249 33.9349C13.3724 33.9349 13.6175 33.8859 13.846 33.7907C14.0745 33.6955 14.2818 33.556 14.4561 33.3802L22.4999 25.3177L30.5436 33.3802C30.7179 33.556 30.9253 33.6955 31.1538 33.7907C31.3823 33.8859 31.6274 33.9349 31.8749 33.9349C32.1224 33.9349 32.3675 33.8859 32.596 33.7907C32.8245 33.6955 33.0318 33.556 33.2061 33.3802C33.3819 33.2059 33.5214 32.9986 33.6166 32.7701C33.7117 32.5416 33.7608 32.2965 33.7608 32.049C33.7608 31.8015 33.7117 31.5564 33.6166 31.3279C33.5214 31.0994 33.3819 30.892 33.2061 30.7177L25.1436 22.674Z" fill="#2CB5B4"/>
</svg>
