<svg width="45" height="46" viewBox="0 0 45 46" fill="none" xmlns="http://www.w3.org/2000/svg">
<path d="M37.5937 20.799H7.40625C6.42249 20.799 5.625 21.5965 5.625 22.5803V22.7678C5.625 23.7515 6.42249 24.549 7.40625 24.549H37.5937C38.5775 24.549 39.375 23.7515 39.375 22.7678V22.5803C39.375 21.5965 38.5775 20.799 37.5937 20.799Z" fill="#2CB5B4"/>
<path d="M37.5937 30.174H7.40625C6.42249 30.174 5.625 30.9715 5.625 31.9553V32.1428C5.625 33.1265 6.42249 33.924 7.40625 33.924H37.5937C38.5775 33.924 39.375 33.1265 39.375 32.1428V31.9553C39.375 30.9715 38.5775 30.174 37.5937 30.174Z" fill="#2CB5B4"/>
<path d="M37.5937 11.424H7.40625C6.42249 11.424 5.625 12.2215 5.625 13.2053V13.3928C5.625 14.3765 6.42249 15.174 7.40625 15.174H37.5937C38.5775 15.174 39.375 14.3765 39.375 13.3928V13.2053C39.375 12.2215 38.5775 11.424 37.5937 11.424Z" fill="#2CB5B4"/>
</svg>
